<?xml version="1.0" standalone="no"?>
<!DOCTYPE svg PUBLIC "-//W3C//DTD SVG 20010904//EN"
 "http://www.w3.org/TR/2001/REC-SVG-20010904/DTD/svg10.dtd">
<svg version="1.0" xmlns="http://www.w3.org/2000/svg"
 width="677.000000pt" height="677.000000pt" viewBox="0 0 677.000000 677.000000"
 preserveAspectRatio="xMidYMid meet">

<g transform="translate(0.000000,677.000000) scale(0.100000,-0.100000)"
fill="#000000" stroke="none">
<path d="M3300 5957 c-158 -45 -247 -202 -257 -457 -15 -366 130 -587 374
-567 158 12 267 124 310 317 24 110 21 321 -5 422 -51 191 -151 286 -312 294
-36 2 -85 -2 -110 -9z m194 -141 c77 -58 110 -171 110 -366 -1 -153 -18 -237
-62 -310 -67 -109 -201 -120 -280 -24 -51 62 -73 141 -79 290 -10 239 37 381
142 430 47 22 127 13 169 -20z"/>
<path d="M2578 5863 c-30 -49 -121 -192 -201 -319 l-147 -232 0 -71 0 -71 215
0 214 0 3 -107 3 -108 67 -3 67 -3 3 108 3 108 73 3 72 3 0 59 0 59 -72 3 -73
3 -3 328 -2 327 -83 0 -84 0 -55 -87z m84 -380 l-3 -193 -150 0 c-126 0 -150
2 -146 14 3 8 70 118 149 245 l143 231 5 -52 c3 -29 4 -140 2 -245z"/>
<path d="M4216 5883 c-25 -38 -117 -182 -205 -322 l-161 -254 0 -69 0 -68 220
0 220 0 0 -110 0 -110 70 0 70 0 0 110 0 110 70 0 70 0 0 60 0 60 -70 0 -70 0
0 330 0 330 -85 0 -85 0 -44 -67z m74 -348 l0 -245 -155 0 c-85 0 -155 2 -155
5 0 6 277 452 293 473 5 6 11 12 13 12 2 0 4 -110 4 -245z"/>
<path d="M2240 4685 c0 -63 4 -105 10 -105 6 0 10 42 10 105 0 63 -4 105 -10
105 -6 0 -10 -42 -10 -105z"/>
<path d="M2610 4685 c0 -63 4 -105 10 -105 6 0 10 14 10 32 l0 32 33 -32 c45
-43 67 -42 33 2 -32 42 -32 44 -4 73 31 33 1 30 -34 -4 l-28 -27 0 67 c0 38
-4 67 -10 67 -6 0 -10 -42 -10 -105z"/>
<path d="M2940 4686 c0 -64 4 -106 10 -106 6 0 10 38 10 95 0 52 0 98 1 102 0
4 -4 9 -10 11 -7 2 -11 -31 -11 -102z"/>
<path d="M3065 4688 c0 -72 4 -103 13 -106 7 -2 12 6 12 22 0 33 13 33 38 1
19 -23 42 -34 42 -18 0 4 -12 20 -27 35 l-27 28 29 30 c20 21 24 30 13 30 -8
0 -23 -9 -33 -20 -29 -32 -35 -24 -35 40 0 41 -4 60 -12 60 -10 0 -13 -27 -13
-102z"/>
<path d="M3946 4774 c-3 -9 -6 -27 -6 -40 0 -16 -6 -24 -17 -24 -17 -1 -17 -1
0 -14 12 -10 17 -27 17 -65 0 -37 4 -51 12 -49 7 3 13 24 13 52 0 30 5 50 15
56 13 8 12 11 -4 23 -21 16 -14 57 10 57 8 0 14 5 14 10 0 16 -47 11 -54 -6z"/>
<path d="M4570 4749 c0 -39 -1 -40 -28 -34 -42 9 -76 -22 -76 -68 0 -52 17
-67 75 -65 l49 2 0 103 c0 62 -4 103 -10 103 -5 0 -10 -18 -10 -41z m-10 -73
c28 -35 -11 -93 -47 -70 -36 22 -23 84 17 84 10 0 23 -7 30 -14z"/>
<path d="M1994 4767 c-10 -28 1 -180 14 -185 9 -3 12 21 12 97 0 63 -4 101
-10 101 -6 0 -13 -6 -16 -13z"/>
<path d="M3005 4770 c-8 -13 4 -32 16 -25 12 8 12 35 0 35 -6 0 -13 -4 -16
-10z"/>
<path d="M2070 4735 c0 -9 -7 -18 -15 -21 -19 -8 -20 -24 -1 -24 11 0 16 -15
18 -52 3 -49 5 -53 31 -56 15 -2 27 1 27 7 0 6 -7 11 -15 11 -8 0 -17 14 -21
34 -7 39 0 56 22 56 8 0 14 5 14 10 0 6 -7 10 -15 10 -8 0 -15 9 -15 20 0 11
-7 20 -15 20 -8 0 -15 -7 -15 -15z"/>
<path d="M2315 4695 c-46 -45 -19 -115 43 -115 62 0 85 80 36 119 -34 27 -50
26 -79 -4z m75 -21 c10 -11 11 -23 4 -42 -17 -49 -74 -36 -74 18 0 14 3 30 7
33 12 13 50 7 63 -9z"/>
<path d="M2476 4699 c-50 -39 -26 -119 37 -119 34 0 67 32 67 65 0 28 -40 75
-63 75 -8 0 -26 -9 -41 -21z m72 -42 c6 -54 -48 -80 -69 -33 -16 35 4 68 39
64 21 -2 28 -9 30 -31z"/>
<path d="M2770 4713 c-41 -16 -39 -49 5 -74 41 -24 37 -43 -7 -34 -23 6 -29 4
-26 -6 3 -8 21 -15 41 -17 28 -2 38 1 47 17 8 17 7 24 -10 41 -11 11 -27 20
-35 20 -8 0 -15 7 -15 16 0 12 7 15 25 12 32 -7 42 8 16 21 -11 6 -21 11 -23
10 -2 0 -10 -3 -18 -6z"/>
<path d="M3222 4703 c-24 -20 -29 -46 -19 -85 8 -31 41 -44 82 -34 37 9 32 29
-5 21 -32 -7 -65 9 -54 26 3 5 25 9 50 9 37 0 44 3 44 20 0 25 -34 60 -59 60
-10 0 -28 -8 -39 -17z m56 -15 c20 -20 14 -28 -23 -28 -38 0 -46 13 -17 29 22
13 26 13 40 -1z"/>
<path d="M3575 4695 c-30 -29 -32 -68 -5 -95 40 -40 110 -11 110 45 0 29 -40
75 -65 75 -9 0 -27 -11 -40 -25z m73 -46 c2 -27 -1 -38 -14 -43 -41 -16 -69
18 -53 63 7 17 15 22 36 19 24 -3 28 -8 31 -39z"/>
<path d="M4047 4709 c-44 -26 -39 -113 8 -125 36 -9 56 -2 78 28 18 24 19 30
7 58 -7 18 -24 36 -37 41 -30 11 -34 11 -56 -2z m63 -33 c28 -35 -11 -93 -47
-70 -36 22 -23 84 17 84 10 0 23 -7 30 -14z"/>
<path d="M4348 4713 c-27 -4 -28 -6 -28 -69 0 -79 22 -85 30 -8 5 44 7 49 30
49 23 0 25 -4 28 -52 4 -73 22 -67 22 7 0 48 -4 61 -19 70 -11 5 -23 9 -28 9
-4 -1 -20 -4 -35 -6z"/>
<path d="M4728 4713 c-19 -5 -24 -18 -10 -27 4 -2 14 -1 22 4 17 11 40 2 40
-16 0 -8 -10 -14 -23 -14 -35 0 -59 -22 -55 -51 3 -22 8 -24 53 -24 l49 0 -3
55 c-3 70 -21 87 -73 73z m50 -90 c-4 -20 -35 -30 -50 -15 -15 15 0 32 28 32
19 0 25 -5 22 -17z"/>
<path d="M3007 4703 c-4 -3 -7 -33 -7 -65 0 -45 3 -58 15 -58 12 0 15 14 15
65 0 60 -6 75 -23 58z"/>
<path d="M3434 4646 c27 -71 25 -101 -7 -110 -17 -4 -19 -8 -9 -18 22 -22 45
4 74 83 41 109 41 109 25 109 -9 0 -20 -19 -27 -46 -14 -50 -22 -48 -40 9 -6
20 -18 37 -26 37 -11 0 -9 -14 10 -64z"/>
<path d="M3710 4665 c0 -70 12 -85 65 -83 l45 2 0 63 c0 35 -4 63 -10 63 -5 0
-10 -17 -10 -38 0 -84 -57 -99 -62 -16 -4 64 -28 72 -28 9z"/>
<path d="M4182 4648 l3 -63 53 -2 52 -1 0 64 c0 50 -3 64 -15 64 -11 0 -15
-12 -15 -49 0 -41 -4 -51 -20 -56 -31 -10 -40 2 -40 56 0 27 -5 49 -10 49 -7
0 -10 -24 -8 -62z"/>
<path d="M3370 4239 l0 -110 -26 20 c-38 30 -121 29 -159 -1 -32 -25 -64 -91
-65 -132 0 -80 59 -165 118 -167 54 -2 77 3 103 21 26 19 27 19 32 0 3 -14 14
-20 31 -20 l26 0 0 250 0 250 -30 0 -30 0 0 -111z m-29 -148 c25 -25 29 -37
29 -81 0 -44 -4 -56 -29 -81 -48 -47 -116 -38 -146 21 -57 110 62 225 146 141z"/>
<path d="M4572 4103 l3 -248 28 -3 27 -3 0 75 c0 42 3 76 8 76 4 -1 34 -34 67
-75 56 -69 63 -75 98 -75 46 0 46 0 -41 97 l-64 72 61 69 c34 38 61 72 61 75
0 4 -13 7 -29 7 -22 0 -43 -15 -95 -67 l-66 -68 0 158 0 157 -30 0 -30 0 2
-247z"/>
<path d="M1970 4084 l0 -237 108 5 c117 5 163 21 214 75 75 79 78 232 7 321
-41 52 -102 72 -223 72 l-106 0 0 -236z m240 154 c52 -36 73 -71 78 -132 3
-43 -1 -65 -18 -100 -30 -63 -74 -88 -166 -94 l-74 -5 0 177 0 176 74 0 c59 0
79 -4 106 -22z"/>
<path d="M3730 4085 l0 -235 130 0 130 0 0 30 0 30 -100 0 -100 0 0 205 0 205
-30 0 -30 0 0 -235z"/>
<path d="M4052 4308 c-18 -18 -14 -45 10 -62 32 -23 60 -4 56 37 -2 26 -8 33
-28 35 -14 2 -31 -3 -38 -10z"/>
<path d="M2499 4155 c-82 -44 -99 -186 -33 -264 44 -53 159 -58 212 -8 22 21
22 21 3 40 -18 19 -19 19 -40 -2 -33 -33 -95 -29 -132 8 -54 54 -44 61 91 61
116 0 120 1 120 21 0 45 -25 101 -57 129 -28 25 -42 30 -86 30 -29 -1 -64 -7
-78 -15z m123 -45 c35 -27 42 -68 14 -72 -43 -6 -156 4 -156 14 0 5 15 25 34
44 39 39 71 43 108 14z"/>
<path d="M2850 4163 c-8 -3 -23 -13 -33 -21 -16 -14 -16 -17 -1 -33 15 -17 17
-17 47 2 43 26 73 24 102 -6 40 -39 33 -51 -35 -58 -33 -4 -74 -14 -91 -23
-38 -19 -64 -75 -51 -112 20 -62 115 -86 172 -44 27 21 28 21 33 2 3 -12 14
-20 26 -20 20 0 21 5 21 120 0 128 -11 169 -49 190 -20 10 -115 13 -141 3z
m136 -195 c-7 -39 -48 -78 -79 -78 -31 0 -67 27 -67 50 0 36 39 60 98 60 l55
0 -7 -32z"/>
<path d="M4057 4157 c-7 -17 -7 -267 -1 -289 3 -11 15 -18 30 -18 l24 0 0 160
0 160 -24 0 c-13 0 -26 -6 -29 -13z"/>
<path d="M4214 4157 c-2 -7 -3 -78 -2 -157 l3 -145 27 -3 26 -3 4 111 c3 108
4 113 31 136 37 31 70 31 96 -2 18 -23 21 -41 21 -135 l0 -109 25 0 25 0 0
129 c0 125 -1 131 -26 160 -22 27 -32 31 -74 31 -33 0 -55 -6 -74 -21 l-26
-20 0 20 c0 16 -6 21 -25 21 -14 0 -28 -6 -31 -13z"/>
<path d="M3968 3181 c-70 -28 -108 -59 -130 -108 -14 -31 -25 -43 -40 -43 -31
0 -209 -114 -241 -155 -15 -19 -36 -35 -47 -35 -11 0 -53 40 -107 103 -120
138 -135 147 -237 147 -112 0 -297 -17 -384 -36 -104 -22 -201 -74 -261 -140
-84 -91 -123 -184 -242 -571 -6 -18 -18 -35 -28 -38 -10 -3 -32 -25 -49 -49
l-32 -44 -39 14 c-34 11 -48 11 -98 -2 -32 -9 -142 -33 -244 -54 -104 -21
-216 -51 -255 -67 -38 -16 -98 -38 -134 -47 -129 -36 -196 -77 -183 -112 6
-18 -18 -29 -111 -53 -172 -42 -311 -113 -407 -205 -70 -69 -76 -82 -50 -116
16 -23 19 -37 14 -77 -4 -38 -2 -52 11 -62 25 -21 56 -7 141 65 96 80 117 90
218 98 47 3 93 14 117 26 47 24 50 24 50 5 0 -27 -44 -84 -83 -105 -43 -25
-49 -58 -17 -90 27 -27 48 -25 106 11 68 43 112 87 124 125 6 18 29 49 51 69
l40 36 35 -30 c19 -17 43 -31 53 -31 10 0 51 25 92 55 51 38 95 61 144 76 39
12 124 45 190 75 65 30 125 54 133 54 29 0 -15 -90 -60 -121 -18 -12 -55 -43
-83 -70 -39 -36 -60 -49 -95 -54 -87 -14 -200 -77 -200 -112 0 -25 54 -47 184
-75 181 -39 211 -64 202 -172 -3 -40 -11 -67 -25 -85 -57 -70 -76 -158 -45
-206 32 -50 144 -61 303 -31 176 34 239 20 325 -69 81 -84 112 -91 199 -45 51
27 80 34 172 43 60 6 151 12 200 12 84 0 95 -2 169 -38 l78 -39 55 21 c31 12
65 18 78 15 35 -9 91 13 119 46 13 16 29 52 35 80 14 66 41 117 83 157 40 39
83 58 168 73 82 15 177 59 215 99 28 30 30 37 31 116 0 73 4 91 33 150 26 52
43 73 79 96 126 80 215 57 284 -74 49 -91 96 -137 141 -137 26 0 39 6 47 21
10 17 6 25 -29 57 -74 68 -57 73 113 38 89 -18 125 -37 241 -125 85 -65 123
-75 156 -45 27 24 9 47 -56 74 -56 23 -68 43 -43 68 23 23 144 14 245 -18 104
-34 160 -37 204 -14 41 21 36 53 -11 76 -56 26 -222 50 -344 48 -132 -2 -216
8 -216 25 0 19 34 24 129 18 113 -7 183 2 179 25 -2 9 -17 24 -34 34 -54 32
-119 38 -250 26 -100 -10 -143 -9 -256 4 -146 17 -184 32 -194 75 -11 41 23
74 134 129 57 28 110 58 118 66 27 27 -16 47 -187 89 -108 27 -179 50 -209 68
-47 29 -149 55 -257 67 -35 4 -63 9 -63 13 0 8 203 86 248 96 19 4 62 2 96 -5
l63 -12 65 50 c36 27 85 56 109 65 24 8 65 23 91 32 26 9 64 28 85 42 37 25
40 26 116 16 125 -17 173 7 197 96 31 117 -40 260 -154 312 -51 23 -142 24
-262 4 -100 -18 -104 -20 -243 -127 -56 -43 -109 -78 -119 -78 -9 0 -73 41
-142 90 -69 50 -135 93 -147 96 -13 3 -23 8 -23 10 0 1 11 24 25 50 38 72 28
169 -20 188 -30 11 -100 5 -147 -13z m66 -144 c16 -45 0 -51 -98 -37 -47 7
-86 16 -86 20 0 12 112 49 145 47 23 -2 32 -9 39 -30z m-752 -46 c14 -16 31
-39 38 -51 7 -12 57 -69 111 -126 84 -87 117 -134 93 -134 -3 0 -50 43 -105
96 -93 88 -103 95 -137 93 -56 -3 -62 -1 -72 26 -11 29 -38 32 -66 7 -10 -10
-35 -25 -56 -35 -33 -15 -37 -22 -43 -67 l-7 -50 -53 0 c-30 0 -57 -5 -63 -12
-15 -19 -60 -168 -83 -277 -11 -53 -29 -121 -39 -151 -10 -30 -26 -85 -36
-122 -9 -38 -22 -68 -28 -68 -22 0 -201 52 -210 61 -6 5 -18 9 -28 9 -32 0
-91 36 -136 83 l-44 44 25 49 c13 27 44 108 67 179 64 194 100 267 161 325 60
58 146 104 224 120 58 12 245 26 381 29 77 1 82 0 106 -28z m664 -35 c56 -4
102 -13 125 -25 50 -27 239 -174 231 -181 -4 -3 -8 -12 -10 -20 -2 -8 -20 -32
-40 -52 l-37 -37 -75 86 c-138 159 -154 175 -190 190 -21 9 -64 15 -107 14
-58 0 -82 -5 -130 -30 -64 -32 -117 -48 -111 -32 1 5 48 39 102 74 l100 66 27
-23 c22 -18 44 -24 115 -30z m-6 -302 c54 -60 80 -95 80 -111 0 -8 -4 -12 -9
-9 -5 4 -11 3 -13 -2 -1 -4 -37 -20 -78 -36 -41 -15 -88 -34 -105 -41 -57 -24
-102 -27 -130 -9 -16 11 -43 17 -71 16 -48 -2 -58 13 -28 43 12 12 16 35 15
100 0 91 -12 149 -35 180 -26 34 -19 45 27 46 23 0 62 6 87 13 l45 12 90 -82
c50 -45 106 -99 125 -120z m613 97 c59 -23 116 -135 102 -200 -7 -31 -120
-151 -143 -151 -11 0 -49 16 -60 25 -2 2 6 18 17 36 26 42 27 112 5 211 -14
59 -14 72 -3 79 18 11 52 11 82 0z m-988 -312 c73 -2 188 -36 182 -54 -2 -5
-29 -18 -61 -29 -59 -20 -70 -41 -20 -41 16 0 43 -9 59 -19 17 -11 40 -25 53
-33 12 -7 22 -22 22 -33 0 -15 -7 -20 -30 -20 -38 0 -80 -19 -80 -37 0 -8 7
-25 16 -38 19 -28 16 -30 -56 -39 -25 -3 -72 -16 -105 -29 -33 -13 -96 -37
-139 -52 -89 -32 -156 -83 -156 -120 0 -13 8 -37 17 -53 17 -29 17 -31 0 -50
-10 -10 -38 -30 -64 -43 -30 -15 -49 -33 -55 -51 -6 -16 -14 -28 -18 -28 -18
0 -19 -34 -1 -64 10 -17 21 -48 24 -69 3 -21 19 -60 36 -85 25 -39 29 -54 24
-88 l-5 -41 -66 27 c-54 22 -70 34 -88 66 -24 42 -90 114 -106 114 -5 0 2 -19
17 -42 56 -94 105 -206 111 -253 l6 -50 -73 72 c-120 117 -170 139 -368 163
-51 7 -108 18 -126 26 -62 25 -215 154 -215 180 0 6 -6 17 -14 23 -11 9 -24 5
-62 -19 -27 -16 -73 -34 -101 -40 -29 -5 -66 -16 -82 -25 -17 -8 -42 -15 -56
-15 -32 0 -88 28 -80 40 3 5 46 41 95 81 114 91 136 131 150 277 12 133 25
174 70 225 21 23 46 60 57 81 l20 40 16 -30 c26 -51 77 -95 145 -125 184 -83
501 -142 587 -109 54 20 255 162 296 209 45 50 64 81 99 164 15 37 24 47 37
43 10 -3 50 -6 88 -7z m-1425 -255 c0 -7 -9 -28 -20 -46 -19 -33 -46 -180 -36
-196 2 -4 2 -13 -2 -19 -8 -12 -221 -104 -309 -132 -97 -32 -128 -48 -189 -99
-51 -42 -62 -48 -81 -39 -13 5 -23 16 -23 24 0 16 12 17 27 2 7 -7 19 -9 27
-6 20 8 21 56 2 100 -17 42 -103 101 -179 122 -65 19 -112 53 -99 73 13 19
400 139 572 177 85 18 179 40 209 48 59 15 101 12 101 -9z m1971 -90 c102 -43
109 -49 109 -88 0 -26 -19 -50 -116 -151 -64 -66 -153 -160 -197 -210 -92
-103 -101 -110 -116 -91 -8 10 -5 18 14 36 30 28 33 71 8 118 -44 80 -259 192
-419 218 -47 7 -86 -8 -78 -31 4 -8 9 -13 13 -11 4 3 13 1 20 -4 11 -6 9 -11
-8 -20 -32 -17 -53 -5 -49 27 2 23 15 34 65 61 34 18 99 46 145 62 207 73 341
87 460 50 75 -24 78 -24 78 -6 0 7 -13 19 -30 26 -33 14 -36 20 -18 38 18 18
28 16 119 -24z m-2803 -219 c28 -14 56 -25 64 -25 21 0 105 -56 117 -77 14
-28 2 -41 -80 -81 -68 -34 -77 -42 -106 -97 -37 -70 -133 -158 -167 -153 -42
6 -31 42 28 88 42 32 58 52 66 81 16 58 -10 100 -40 65 -16 -20 -91 -43 -176
-55 -91 -12 -120 -26 -219 -106 -44 -36 -85 -65 -92 -65 -8 0 -13 12 -13 29 0
24 14 41 80 97 49 42 76 72 70 78 -8 8 -21 1 -76 -39 -18 -13 -24 -4 -27 41
l-2 39 85 5 c84 5 110 12 110 31 0 6 -20 7 -50 3 -82 -11 -61 12 67 73 81 39
140 59 196 69 44 8 83 16 85 19 10 10 31 5 80 -20z m2257 -51 c118 -56 165
-92 191 -147 l23 -50 -55 -63 c-30 -34 -66 -70 -79 -78 -21 -14 -23 -19 -13
-36 7 -10 10 -20 8 -22 -3 -2 -24 -13 -48 -26 -49 -26 -61 -22 -82 28 -19 45
-36 38 -31 -12 3 -22 -2 -22 -39 -3 -19 10 -37 33 -51 65 -22 51 -45 78 -56
66 -6 -6 0 -27 24 -92 3 -8 -13 -12 -46 -12 l-51 0 -11 42 c-6 22 -16 47 -21
53 -16 20 -28 5 -21 -27 3 -17 1 -30 -4 -30 -18 0 -33 24 -33 53 0 15 -5 48
-11 73 -11 42 -10 47 12 71 13 14 47 41 76 59 28 19 55 38 58 44 11 17 83 50
111 50 18 0 28 6 31 20 6 24 17 22 118 -26z m-2855 -225 c0 -33 -23 -40 -39
-12 -7 13 -5 23 6 35 20 23 33 14 33 -23z"/>
<path d="M921 1687 c-41 -14 -58 -44 -20 -33 13 3 43 9 67 12 26 4 42 12 42
20 0 17 -42 17 -89 1z"/>
<path d="M5390 1425 c0 -7 15 -24 33 -36 17 -13 56 -44 85 -71 42 -37 61 -48
87 -48 70 0 87 66 27 106 -21 15 -56 25 -100 29 -37 4 -82 13 -99 21 -28 11
-33 11 -33 -1z"/>
<path d="M5750 1401 c0 -16 61 -51 88 -51 13 0 67 -18 119 -40 53 -22 103 -40
112 -40 28 0 61 30 61 55 0 40 -35 55 -125 55 -87 1 -209 14 -237 25 -11 4
-18 3 -18 -4z"/>
<path d="M5844 1168 c9 -13 27 -40 41 -60 13 -20 34 -39 45 -43 24 -8 50 10
50 35 0 19 -30 50 -49 50 -6 0 -29 9 -51 20 -50 26 -56 25 -36 -2z"/>
</g>
</svg>
